<svg xmlns="http://www.w3.org/2000/svg" viewBox="0 0 38.5 38.5" id="linkedin">
  <defs>
    <linearGradient id="a" x1="5.65" x2="32.85" y1="5.65" y2="32.85" gradientUnits="userSpaceOnUse">
      <stop offset="0" stop-color="#007bb8"></stop>
      <stop offset="1" stop-color="#0044e9"></stop>
    </linearGradient>
  </defs>
  <g style="isolation:isolate">
    <g>
      <g>
        <g>
          <path fill="url(#a)" d="M38.5,19.25c0,1.49-.17,2.94-.51,4.33,0,.08-.03.16-.05.24-.84,3.47-2.64,6.58-5.09,9.03-3.49,3.48-8.31,5.65-13.6,5.65-.81,0-1.61-.05-2.39-.15-.1-.01-.21-.03-.31-.04C7.23,36.99,0,28.92,0,19.25c0-5.3,2.16-10.11,5.65-13.6C9.14,2.17,13.96,0,19.25,0s10.11,2.17,13.6,5.65c3.49,3.49,5.65,8.3,5.65,13.6Z"></path>
          <path fill="#126bc4" d="M37.99,23.58c0,.08-.03.16-.05.24-.84,3.47-2.64,6.58-5.09,9.03-3.49,3.48-8.31,5.65-13.6,5.65-.81,0-1.61-.05-2.39-.15-1.98-1.87-6.54-6.84-8.16-8.24v-15.56h3.39s-.03-.04-.05-.06c-.05-.04-.09-.09-.13-.13-.05-.05-.1-.09-.14-.14-.85-.85-1.71-1.7-2.56-2.56-.55-.51-.89-1.23-.89-2.04,0-1.55,1.25-2.81,2.81-2.81.8,0,1.53.35,2.04.9,2.2,2.2,4.4,4.4,6.6,6.6.04.04.09.09.13.13.04.04.08.07.11.11h1.21v.13h.14v.14h.13v.13h.14v.14h.13v.13h.14v.14h.13v.13h.14v.07c.83-.78,2.07-1.4,3.7-1.4,1.92,0,3.22.5,4.1,1.36l8.02,8.06Z" style="mix-blend-mode:multiply"></path>
          <g>
            <path fill="#fff" d="M8.7 14.63h4.85v15.56h-4.85v-15.56zM11.12 6.9c1.55 0 2.8 1.26 2.8 2.8s-1.26 2.81-2.8 2.81-2.81-1.26-2.81-2.81 1.26-2.8 2.81-2.8M16.58 14.63h4.64v2.13h.06c.65-1.22 2.23-2.51 4.58-2.51 4.9 0 5.8 3.22 5.8 7.41v8.54h-4.83v-7.57c0-1.81-.04-4.13-2.51-4.13s-2.9 1.97-2.9 4v7.7h-4.84v-15.56z"></path>
          </g>
        </g>
      </g>
    </g>
  </g>
</svg>
