<svg xmlns="http://www.w3.org/2000/svg" width="256" height="256" fill="none" viewBox="0 0 256 256" id="x">
  <path fill="#00A3FF" fill-rule="evenodd" d="M120.281 125.5L92.25 88.125H103.938L131.969 125.5H120.281Z" clip-rule="evenodd"></path>
  <path fill="#0478B9" d="M152.062 167.875H163.75L131.969 125.5H120.281L152.062 167.875Z"></path>
  <path fill="#00A3FF" fill-rule="evenodd" d="M30 125.5H109.969L82.02 88.235C79.4366 84.7905 81.8944 79.875 86.2 79.875H105.45C107.095 79.875 108.643 80.6493 109.63 81.965L134.331 114.899L163.38 81.3021C164.87 79.5787 167.475 79.3896 169.198 80.8796C170.921 82.3696 171.11 84.9746 169.62 86.6979L139.397 121.654L142.281 125.5H226V87.4069L168.593 30H87.4072L30 87.4072V125.5Z" clip-rule="evenodd"></path>
  <path fill="#0478B9" fill-rule="evenodd" d="M30 125.5V168.593L87.4072 226H168.593L226 168.593V125.5H142.281L173.98 167.765C176.563 171.21 174.106 176.125 169.8 176.125H150.55C148.905 176.125 147.357 175.351 146.37 174.035L121.693 141.133L92.618 174.701C91.1265 176.423 88.5214 176.61 86.7993 175.118C85.0773 173.626 84.8904 171.021 86.382 169.299L116.628 134.379L109.969 125.5H30Z" clip-rule="evenodd"></path>
</svg>
